<?xml version="1.0" encoding="iso-8859-1"?>
<!-- Generator: Adobe Illustrator 16.0.0, SVG Export Plug-In . SVG Version: 6.00 Build 0)  -->
<!DOCTYPE svg PUBLIC "-//W3C//DTD SVG 1.1//EN" "http://www.w3.org/Graphics/SVG/1.1/DTD/svg11.dtd">
<svg version="1.1" id="&#x5716;&#x5C64;_1" xmlns="http://www.w3.org/2000/svg" xmlns:xlink="http://www.w3.org/1999/xlink" x="0px"
	 y="0px" width="48px" height="48px" viewBox="0 0 48 48" style="enable-background:new 0 0 48 48;" xml:space="preserve">
<path d="M24,0C10.745,0,0,10.745,0,24s10.745,24,24,24s24-10.745,24-24S37.255,0,24,0z M40.939,13.318h-3.386
	c-0.001,0.029,0.01,0.057,0.005,0.087L34.34,34.974c-0.009,0.055-0.038,0.098-0.054,0.147c-0.102,0.422-0.467,0.742-0.923,0.742
	h-1.927c0.615,0.598,0.999,1.428,0.999,2.349c0,1.816-1.484,3.288-3.314,3.288c-1.831,0-3.315-1.472-3.315-3.288
	c0-0.921,0.385-1.751,1-2.349H15.335c0.616,0.598,1,1.428,1,2.349c0,1.816-1.484,3.288-3.315,3.288
	c-1.831,0-3.315-1.472-3.315-3.288c0-0.921,0.384-1.751,1-2.349H7.831c-0.534,0-0.967-0.43-0.967-0.959v-0.899
	c0-0.53,0.433-0.96,0.967-0.96h23.924l0.282-1.89c-0.025,0.001-0.047,0.012-0.072,0.012H9.406c-0.54,0-0.996-0.344-1.068-0.804
	L6.103,16.251c-0.088-0.558,0.415-1.054,1.068-1.054h27.028c0.074,0,0.146,0.008,0.217,0.021l0.332-2.225
	c0.024-0.162,0.222-0.963,0.529-1.553c0.299-0.574,0.704-0.939,0.967-0.939h4.695c0.534,0,0.968,0.43,0.968,0.959v0.899
	C41.907,12.889,41.474,13.318,40.939,13.318z"/>
</svg>
