<?xml version="1.0" encoding="UTF-8"?><svg id="a" xmlns="http://www.w3.org/2000/svg" viewBox="0 0 48 48"><defs><style>.b{fill:#fff;}</style></defs><path class="b" d="M24,0C10.75,0,0,10.75,0,24s10.75,24,24,24,24-10.75,24-24S37.25,0,24,0Zm16.94,13.32h-3.39s0,.06,0,.09l-3.22,21.57c0,.05-.04,.1-.05,.15-.1,.42-.47,.74-.92,.74h-1.93c.62,.6,1,1.43,1,2.35,0,1.82-1.48,3.29-3.31,3.29s-3.31-1.47-3.31-3.29c0-.92,.38-1.75,1-2.35H15.34c.62,.6,1,1.43,1,2.35,0,1.82-1.48,3.29-3.31,3.29s-3.31-1.47-3.31-3.29c0-.92,.38-1.75,1-2.35h-2.87c-.53,0-.97-.43-.97-.96v-.9c0-.53,.43-.96,.97-.96H31.75l.28-1.89s-.05,.01-.07,.01H9.41c-.54,0-1-.34-1.07-.8l-2.23-14.11c-.09-.56,.41-1.05,1.07-1.05h27.03c.07,0,.15,0,.22,.02l.33-2.22c.02-.16,.22-.96,.53-1.55,.3-.57,.7-.94,.97-.94h4.7c.53,0,.97,.43,.97,.96v.9c0,.53-.43,.96-.97,.96Z"/></svg>