<?xml version="1.0" encoding="iso-8859-1"?>
<!-- Generator: Adobe Illustrator 16.0.0, SVG Export Plug-In . SVG Version: 6.00 Build 0)  -->
<!DOCTYPE svg PUBLIC "-//W3C//DTD SVG 1.1//EN" "http://www.w3.org/Graphics/SVG/1.1/DTD/svg11.dtd">
<svg version="1.1" id="&#x5716;&#x5C64;_1" xmlns="http://www.w3.org/2000/svg" xmlns:xlink="http://www.w3.org/1999/xlink" x="0px"
	 y="0px" width="48px" height="48px" viewBox="0 0 48 48" style="enable-background:new 0 0 48 48;" xml:space="preserve">
<g>
	<path d="M24,0C10.745,0,0,10.745,0,24s10.745,24,24,24s24-10.745,24-24S37.255,0,24,0z M31.73,8.557
		c-0.865-0.14-1.658-0.211-2.383-0.211c-1.246,0-2.166,0.231-2.76,0.693C25.995,9.502,25.641,9.787,25.5,10.5c-0.141,0.714,0,3,0,5
		h5l-1,6h-4v24h-6v-24h-4v-6h4c0.061-3.619-0.004-6.516,0.56-7.893c0.563-1.377,1.482-2.458,2.759-3.242s3.012-1.176,5.203-1.176
		c1.266,0,3.272,0.07,4.479,0.312L31.73,8.557z"/>
</g>
</svg>
