<?xml version="1.0" encoding="iso-8859-1"?>
<!-- Generator: Adobe Illustrator 16.0.0, SVG Export Plug-In . SVG Version: 6.00 Build 0)  -->
<!DOCTYPE svg PUBLIC "-//W3C//DTD SVG 1.1//EN" "http://www.w3.org/Graphics/SVG/1.1/DTD/svg11.dtd">
<svg version="1.1" id="&#x5716;&#x5C64;_1" xmlns="http://www.w3.org/2000/svg" xmlns:xlink="http://www.w3.org/1999/xlink" x="0px"
	 y="0px" width="48px" height="48px" viewBox="0 0 48 48" style="enable-background:new 0 0 48 48;" xml:space="preserve">
<g>
	<path d="M24,0C10.8,0,0,10.8,0,24l0,0c0,13.2,10.8,24,24,24s24-10.8,24-24l0,0C48,10.8,37.2,0,24,0z M44,29.404
		c0,3.353-3,5.596-6.096,6.096C37.904,35.5,30,37,24,37s-13.904-1.5-13.904-1.5C7,35,4,32.757,4,29.404V18.596
		C4,15.243,7,13,10.096,12.5C10.096,12.5,18,11,24,11c7,0,13.904,1.5,13.904,1.5C41,13,44,15.243,44,18.596V29.404z"/>
	<polygon points="18.817,33.449 35.183,24 18.817,14.551 	"/>
</g>
</svg>
