<?xml version="1.0" encoding="UTF-8"?><svg id="a" xmlns="http://www.w3.org/2000/svg" viewBox="0 0 48 48"><defs><style>.b{fill:#fff;}</style></defs><path class="b" d="M24,0C10.8,0,0,10.8,0,24H0c0,13.2,10.8,24,24,24s24-10.8,24-24h0C48,10.8,37.2,0,24,0Zm20,29.4c0,3.35-3,5.6-6.1,6.1,0,0-7.9,1.5-13.9,1.5s-13.9-1.5-13.9-1.5c-3.1-.5-6.1-2.74-6.1-6.1v-10.81c0-3.35,3-5.6,6.1-6.1,0,0,7.9-1.5,13.9-1.5,7,0,13.9,1.5,13.9,1.5,3.1,.5,6.1,2.74,6.1,6.1v10.81Z"/><polygon class="b" points="18.82 33.45 35.18 24 18.82 14.55 18.82 33.45"/></svg>